<?xml version="1.0" ?><svg height="512" style="isolation:isolate" viewBox="-5248 1920 512 512" width="512" xmlns="http://www.w3.org/2000/svg" xmlns:xlink="http://www.w3.org/1999/xlink"><g><linearGradient gradientTransform="matrix(512,0,0,512,-5248,1920)" gradientUnits="userSpaceOnUse" id="_lgradient_30" x1="0" x2="1" y1="0.5" y2="0.5"><stop offset="2.608695652173913%" stop-opacity="1" style="stop-color:rgb(126,138,176)"/><stop offset="51.30434782608696%" stop-opacity="1" style="stop-color:rgb(71,89,147)"/><stop offset="98.26086956521739%" stop-opacity="1" style="stop-color:rgb(47,62,111)"/></linearGradient><path d=" M -5102.08 1920 L -4881.92 1920 C -4801.3846 1920 -4736 1985.3846 -4736 2065.92 L -4736 2286.08 C -4736 2366.6154 -4801.3846 2432 -4881.92 2432 L -5102.08 2432 C -5182.6154 2432 -5248 2366.6154 -5248 2286.08 L -5248 2065.92 C -5248 1985.3846 -5182.6154 1920 -5102.08 1920 Z " fill="url(#_lgradient_30)"/><linearGradient gradientTransform="matrix(142.9694,0,0,275.0003,-5063.4847,2038.5)" gradientUnits="userSpaceOnUse" id="_lgradient_31" x1="0" x2="1" y1="0.5" y2="0.5"><stop offset="0%" stop-opacity="1" style="stop-color:rgb(255,255,255)"/><stop offset="100%" stop-opacity="1" style="stop-color:rgb(230,229,229)"/></linearGradient><path d=" M -5025.3798 2306.1647 L -5025.2036 2203.6554 C -5025.1951 2198.7082 -5029.2047 2194.6917 -5034.1519 2194.6917 L -5056.0542 2194.6917 C -5060.0655 2194.6917 -5063.3212 2191.4482 -5063.3366 2187.4369 L -5063.4846 2149.1405 C -5063.5001 2145.1073 -5060.2346 2141.8297 -5056.2014 2141.8297 L -5034.3552 2141.8297 C -5029.408 2141.8297 -5025.3915 2137.8132 -5025.3915 2132.8659 L -5025.3915 2104.8256 C -5025.3915 2061.8827 -4999.1647 2038.5 -4960.8569 2038.5 L -4929.4224 2038.5 C -4925.4005 2038.5 -4922.1391 2041.7606 -4922.1391 2045.7832 L -4922.1391 2078.0749 C -4922.1391 2082.096 -4925.3981 2085.3557 -4929.4183 2085.3582 L -4948.7092 2085.3671 C -4969.5422 2085.3671 -4973.5763 2095.2667 -4973.5763 2109.7949 L -4973.5763 2132.8668 C -4973.5763 2137.814 -4969.5598 2141.8305 -4964.6125 2141.8305 L -4927.799 2141.8305 C -4923.4372 2141.8305 -4920.053 2145.6392 -4920.567 2149.9709 L -4925.1061 2188.2673 C -4925.5404 2191.9321 -4928.6481 2194.6933 -4932.3381 2194.6933 L -4964.4084 2194.6933 C -4969.3556 2194.6933 -4973.379 2198.7098 -4973.3875 2203.657 L -4973.5637 2306.1663 C -4973.5706 2310.2141 -4976.8625 2313.5002 -4980.9102 2313.5 L -5018.0584 2313.4989 C -5022.1061 2313.4988 -5025.3867 2310.2124 -5025.3798 2306.1647 Z " fill="url(#_lgradient_31)"/></g></svg>